# xmcd
#
# Track frame offsets: 
#        150
#        25192
#        39954
#        56857
#        75918
#        95821
#        113794
#        131385
#        155090
#        170443
#        191428
#        217516
#        236831
#        261475
#        273685
#
# Disc length: 3990 seconds
#
# Revision: 3
# Processed by: cddbd v1.5.2PL0 Copyright (c) Steve Scherf et al.
# Submitted via: ExactAudioCopyFreeDBPlugin 1.0
#
DISCID=cc0f940f
DTITLE=Kiss - Disc 4 - Alive-The Millenium Concert (2000)
DYEAR=2006
DGENRE=Hard Rock
TTITLE0=Psycho Circus
TTITLE1=Shout It Out Loud
TTITLE2=Deuce
TTITLE3=Heaven's On Fire
TTITLE4=Into The Void
TTITLE5=Firehouse
TTITLE6=Do You Love Me?
TTITLE7=Let Me Go Rock  N Roll
TTITLE8=I Love It Loud
TTITLE9=Lick It Up
TTITLE10=100,000 Years
TTITLE11=Love Gun
TTITLE12=Black Diamond
TTITLE13=Beth
TTITLE14=Rock And Roll All Nite
EXTD=YEAR: 2006
EXTT0=
EXTT1=
EXTT2=
EXTT3=
EXTT4=
EXTT5=
EXTT6=
EXTT7=
EXTT8=
EXTT9=
EXTT10=
EXTT11=
EXTT12=
EXTT13=
EXTT14=
PLAYORDER=
